<svg width="26" height="29" viewBox="0 0 26 29" fill="none" xmlns="http://www.w3.org/2000/svg">
<path d="M26 21.025C26 21.576 25.6967 22.0545 25.2344 22.301L13.8233 28.739C13.5922 28.913 13.3033 29 13 29C12.6967 29 12.4078 28.913 12.1767 28.739L0.765556 22.301C0.303333 22.0545 0 21.576 0 21.025V7.975C0 7.424 0.303333 6.9455 0.765556 6.699L12.1767 0.261C12.4078 0.0870001 12.6967 0 13 0C13.3033 0 13.5922 0.0870001 13.8233 0.261L25.2344 6.699C25.6967 6.9455 26 7.424 26 7.975V21.025ZM13 3.1175L10.27 4.669L18.7778 9.5845L21.6089 7.975L13 3.1175ZM4.39111 7.975L13 12.8325L15.8311 11.2375L7.33778 6.3075L4.39111 7.975ZM2.88889 20.1695L11.5556 25.0705V15.341L2.88889 10.4545V20.1695ZM23.1111 20.1695V10.4545L14.4444 15.341V25.0705L23.1111 20.1695Z" fill="black"/>
</svg>
