<svg width="44" height="60" viewBox="0 0 44 60" fill="none" xmlns="http://www.w3.org/2000/svg">
<path fill-rule="evenodd" clip-rule="evenodd" d="M19.8669 6.74665H13.5736C10.0978 6.74665 7.28022 9.56427 7.28022 13.04C7.28022 16.5157 10.0978 19.3333 13.5736 19.3333H19.8669V6.74665ZM19.8669 2.47998H24.1336H30.4269C36.2592 2.47998 40.9867 7.20783 40.9867 13.04C40.9867 16.4816 39.3406 19.5388 36.7921 21.4666C39.3406 23.3945 40.9867 26.4517 40.9867 29.8934C40.9867 35.7255 36.2592 40.4534 30.4269 40.4534C28.0687 40.4534 25.8911 39.6804 24.1336 38.374V40.4534V46.7467C24.1336 52.5788 19.4057 57.3067 13.5736 57.3067C7.7414 57.3067 3.01355 52.5788 3.01355 46.7467C3.01355 43.3048 4.65997 40.2479 7.2082 38.32C4.65997 36.3921 3.01355 33.335 3.01355 29.8934C3.01355 26.4517 4.66001 23.3945 7.20828 21.4667C4.66001 19.5388 3.01355 16.4816 3.01355 13.04C3.01355 7.20783 7.7414 2.47998 13.5736 2.47998H19.8669ZM24.1336 6.74665V19.3333H30.4269C33.9027 19.3333 36.72 16.5157 36.72 13.04C36.72 9.56427 33.9027 6.74665 30.4269 6.74665H24.1336ZM13.5736 36.1866H19.8669V29.9096V29.8934V29.8771V23.6H13.5736C10.0978 23.6 7.28022 26.4176 7.28022 29.8934C7.28022 33.3607 10.0844 36.1732 13.5486 36.1866L13.5736 36.1866ZM7.28022 46.7467C7.28022 43.2792 10.0844 40.4668 13.5486 40.4533L13.5736 40.4534H19.8669V46.7467C19.8669 50.2223 17.0493 53.04 13.5736 53.04C10.0978 53.04 7.28022 50.2223 7.28022 46.7467ZM24.1336 29.8808C24.1403 26.4109 26.9554 23.6 30.4269 23.6C33.9027 23.6 36.72 26.4176 36.72 29.8934C36.72 33.3691 33.9027 36.1867 30.4269 36.1867C26.9554 36.1867 24.1403 33.3759 24.1336 29.9059V29.8808Z" fill="white" stroke="#FCFCFC" stroke-width="4.26667"/>
</svg>
