<svg width="27" height="26" viewBox="0 0 27 26" fill="none" xmlns="http://www.w3.org/2000/svg">
<path d="M7.83 0H19.17C23.49 0 27 3.38 27 7.54V18.46C27 20.4597 26.1751 22.3776 24.7066 23.7916C23.2382 25.2056 21.2466 26 19.17 26H7.83C3.51 26 0 22.62 0 18.46V7.54C0 5.54027 0.824944 3.62244 2.29335 2.20841C3.76176 0.794391 5.75336 0 7.83 0ZM7.56 2.6C6.27105 2.6 5.03489 3.09307 4.12346 3.97074C3.21203 4.84841 2.7 6.03879 2.7 7.28V18.72C2.7 21.307 4.8735 23.4 7.56 23.4H19.44C20.729 23.4 21.9651 22.9069 22.8765 22.0293C23.788 21.1516 24.3 19.9612 24.3 18.72V7.28C24.3 4.693 22.1265 2.6 19.44 2.6H7.56ZM20.5875 4.55C21.0351 4.55 21.4643 4.7212 21.7807 5.02595C22.0972 5.3307 22.275 5.74402 22.275 6.175C22.275 6.60598 22.0972 7.0193 21.7807 7.32405C21.4643 7.62879 21.0351 7.8 20.5875 7.8C20.1399 7.8 19.7107 7.62879 19.3943 7.32405C19.0778 7.0193 18.9 6.60598 18.9 6.175C18.9 5.74402 19.0778 5.3307 19.3943 5.02595C19.7107 4.7212 20.1399 4.55 20.5875 4.55ZM13.5 6.5C15.2902 6.5 17.0071 7.18482 18.273 8.40381C19.5388 9.62279 20.25 11.2761 20.25 13C20.25 14.7239 19.5388 16.3772 18.273 17.5962C17.0071 18.8152 15.2902 19.5 13.5 19.5C11.7098 19.5 9.9929 18.8152 8.72703 17.5962C7.46116 16.3772 6.75 14.7239 6.75 13C6.75 11.2761 7.46116 9.62279 8.72703 8.40381C9.9929 7.18482 11.7098 6.5 13.5 6.5ZM13.5 9.1C12.4259 9.1 11.3957 9.51089 10.6362 10.2423C9.87669 10.9737 9.45 11.9657 9.45 13C9.45 14.0343 9.87669 15.0263 10.6362 15.7577C11.3957 16.4891 12.4259 16.9 13.5 16.9C14.5741 16.9 15.6043 16.4891 16.3638 15.7577C17.1233 15.0263 17.55 14.0343 17.55 13C17.55 11.9657 17.1233 10.9737 16.3638 10.2423C15.6043 9.51089 14.5741 9.1 13.5 9.1Z" fill="white"/>
</svg>
