<svg width="37" height="43" viewBox="0 0 37 43" fill="none" xmlns="http://www.w3.org/2000/svg">
<path d="M18.5 0C17.945 0 17.3694 0.145862 16.8967 0.416749L1.60333 9.37685C0.616667 9.9603 0 11.0438 0 12.2107V30.0893C0 31.2562 0.616667 32.3397 1.60333 32.9231L5.61167 35.2569C7.56444 36.2155 8.22222 36.2363 9.12667 36.2363C12.0044 36.2363 13.6694 34.4651 13.6694 31.3812V13.7319C13.6694 13.4818 13.4639 13.2734 13.2172 13.2734H11.3056C11.0383 13.2734 10.8328 13.4818 10.8328 13.7319V31.3812C10.8328 32.7565 9.435 34.1109 7.19444 32.9648L2.98056 30.5268C2.83667 30.4227 2.75444 30.256 2.75444 30.0893V12.2107C2.75444 12.0232 2.83667 11.8565 2.98056 11.7732L18.2739 2.83389C18.3972 2.75054 18.6028 2.75054 18.7261 2.83389L34.0194 11.7732C34.1633 11.8565 34.2456 12.0232 34.2456 12.2107V30.0893C34.2456 30.256 34.1633 30.4227 34.0194 30.5268L18.7261 39.4661C18.6028 39.5495 18.3972 39.5495 18.2533 39.4661L14.3889 37.0906C14.2244 37.0281 14.06 37.0073 13.9572 37.0698C12.8678 37.6949 12.6622 37.82 11.655 38.1325C11.4083 38.2159 11.0178 38.3617 11.7989 38.7993L16.8967 41.8624C17.39 42.1541 17.9244 42.3 18.5 42.3C19.0756 42.3 19.61 42.1541 20.1033 41.8624L35.3967 32.9231C36.3833 32.3397 37 31.2562 37 30.0893V12.2107C37 11.0438 36.3833 9.9603 35.3967 9.37685L20.1033 0.416749C19.6306 0.145862 19.0756 0 18.5 0ZM22.6111 12.815C18.2533 12.815 15.6428 14.6696 15.6428 17.7952C15.6428 21.15 18.2328 22.1294 22.4261 22.5461C27.4211 23.0462 27.8117 23.7964 27.8117 24.7966C27.8117 26.5261 26.4344 27.2554 23.2278 27.2554C19.1578 27.2554 18.2944 26.2343 17.9861 24.1923C17.945 23.9839 17.76 23.8172 17.5339 23.8172H15.5606C15.3139 23.8172 15.1289 24.0047 15.1289 24.2756C15.1289 26.8595 16.5267 29.9851 23.2278 29.9851C28.0583 29.9851 30.8333 28.0472 30.8333 24.6715C30.8333 21.3167 28.6133 20.4415 23.9061 19.7956C19.1578 19.1704 18.685 18.837 18.685 17.7118C18.685 16.7741 19.0961 15.5239 22.6111 15.5239C25.6944 15.5239 26.9072 16.2115 27.38 18.3578C27.4211 18.5662 27.6061 18.712 27.8117 18.712H29.8056C29.9083 18.712 30.0317 18.6703 30.1139 18.5662C30.1961 18.4828 30.2578 18.3578 30.2167 18.2328C29.9289 14.5237 27.5033 12.815 22.6111 12.815Z" fill="white"/>
</svg>
