<svg width="27" height="29" viewBox="0 0 27 29" fill="none" xmlns="http://www.w3.org/2000/svg">
<path d="M14.7963 28.9157L12.7043 23.4302C14.7193 22.5995 16.6059 21.4824 18.3513 20.179L14.7963 28.9157ZM5.18351 15.0373L0.268036 12.7028L8.09686 8.73546C6.92895 10.6833 5.92789 12.7887 5.18351 15.0373ZM25.6796 0.557395C25.6796 0.557395 19.3267 -2.48038 12.0626 5.62751C9.25193 8.7641 7.57066 12.2158 6.47976 15.2378C6.1204 16.312 6.36425 17.4864 7.07013 18.2885L9.80379 21.3248C10.5097 22.1269 11.5621 22.3847 12.5246 21.9836C15.2711 20.8092 18.3257 18.89 21.1363 15.7534C28.4004 7.64696 25.6796 0.557395 25.6796 0.557395ZM16.6059 10.6833C15.6048 9.56616 15.6048 7.74722 16.6059 6.63007C17.6069 5.51293 19.2369 5.51293 20.2379 6.63007C21.2262 7.74722 21.239 9.56616 20.2379 10.6833C19.2369 11.8004 17.6069 11.8004 16.6059 10.6833ZM5.95356 28.6435L10.6252 23.4302C10.1888 23.3013 9.76529 23.0865 9.38027 22.7857L4.14394 28.6435H5.95356ZM0.511884 28.6435H2.3215L8.44338 21.8261L6.62093 19.8066L0.511884 26.6241V28.6435ZM0.511884 24.5903L5.76104 18.7468C5.49153 18.3171 5.29902 17.8588 5.18351 17.3575L0.511884 22.5709V24.5903Z" fill="white"/>
</svg>
