<svg width="33" height="33" viewBox="0 0 33 33" fill="none" xmlns="http://www.w3.org/2000/svg">
<path d="M16.5037 22.275C14.9292 22.275 13.4191 21.6666 12.3056 20.5835C11.1922 19.5005 10.5667 18.0316 10.5667 16.5C10.5667 14.9684 11.1922 13.4995 12.3056 12.4165C13.4191 11.3334 14.9292 10.725 16.5037 10.725C18.0783 10.725 19.5884 11.3334 20.7018 12.4165C21.8152 13.4995 22.4408 14.9684 22.4408 16.5C22.4408 18.0316 21.8152 19.5005 20.7018 20.5835C19.5884 21.6666 18.0783 22.275 16.5037 22.275ZM29.1072 18.1005C29.175 17.5725 29.2259 17.0445 29.2259 16.5C29.2259 15.9555 29.175 15.411 29.1072 14.85L32.6863 12.1605C33.0086 11.913 33.0934 11.4675 32.8899 11.1045L29.4973 5.3955C29.2938 5.0325 28.8358 4.884 28.4626 5.0325L24.2388 6.6825C23.3567 6.039 22.4408 5.478 21.3721 5.0655L20.7445 0.693C20.6766 0.297 20.3204 0 19.8963 0H13.1112C12.6871 0 12.3309 0.297 12.263 0.693L11.6354 5.0655C10.5667 5.478 9.65074 6.039 8.76867 6.6825L4.54492 5.0325C4.17173 4.884 3.71374 5.0325 3.51018 5.3955L0.117606 11.1045C-0.102911 11.4675 -0.00113365 11.913 0.321161 12.1605L3.90033 14.85C3.83248 15.411 3.78159 15.9555 3.78159 16.5C3.78159 17.0445 3.83248 17.5725 3.90033 18.1005L0.321161 20.8395C-0.00113365 21.087 -0.102911 21.5325 0.117606 21.8955L3.51018 27.6045C3.71374 27.9675 4.17173 28.0995 4.54492 27.9675L8.76867 26.301C9.65074 26.961 10.5667 27.522 11.6354 27.9345L12.263 32.307C12.3309 32.703 12.6871 33 13.1112 33H19.8963C20.3204 33 20.6766 32.703 20.7445 32.307L21.3721 27.9345C22.4408 27.5055 23.3567 26.961 24.2388 26.301L28.4626 27.9675C28.8358 28.0995 29.2938 27.9675 29.4973 27.6045L32.8899 21.8955C33.0934 21.5325 33.0086 21.087 32.6863 20.8395L29.1072 18.1005Z" fill="white"/>
</svg>
