<svg width="18" height="17" viewBox="0 0 18 17" fill="none" xmlns="http://www.w3.org/2000/svg">
<path d="M7.272 7.55035C7.317 7.26913 7.416 7.02199 7.542 6.81747C7.812 6.34025 8.271 6.09311 8.892 6.08459C9.297 6.08459 9.666 6.25503 9.927 6.50216C10.179 6.76634 10.35 7.13278 10.35 7.49922H11.97C11.952 7.09869 11.871 6.73225 11.7 6.39138C11.565 6.06755 11.358 5.77781 11.088 5.53919C9.783 4.39727 7.362 4.55918 6.255 5.8545C5.094 7.27765 5.067 9.76602 6.246 11.1892C7.335 12.4589 9.72 12.6379 11.016 11.5045C11.295 11.2914 11.52 11.0273 11.7 10.7205C11.844 10.4137 11.943 10.0899 11.952 9.74046H10.35C10.35 9.91942 10.287 10.0813 10.206 10.2262C10.125 10.3881 10.017 10.5159 9.9 10.6267C9.603 10.8483 9.252 10.9676 8.874 10.9676C8.55 10.9591 8.28 10.8994 8.073 10.7716C7.848 10.6523 7.65 10.4563 7.542 10.2262C7.092 9.45924 7.164 8.39401 7.272 7.55035ZM9 0C4.05 0 0 3.83483 0 8.52184C0.477 19.8303 17.55 19.8218 18 8.52184C18 3.83483 13.95 0 9 0ZM9 15.3393C5.031 15.3393 1.8 12.28 1.8 8.52184C2.196 -0.519832 15.804 -0.519832 16.2 8.52184C16.2 12.28 12.969 15.3393 9 15.3393Z" fill="white"/>
</svg>
