<svg width="38" height="33" viewBox="0 0 38 33" fill="none" xmlns="http://www.w3.org/2000/svg">
<path d="M18.75 12.948C20.5465 12.948 22.0116 14.3555 22.0116 16.115C22.0116 17.7907 20.5465 19.215 18.75 19.215C16.9535 19.215 15.4884 17.7907 15.4884 16.115C15.4884 14.3555 16.9535 12.948 18.75 12.948ZM10.6744 29.5204C11.7733 30.1571 14.1802 29.1852 16.9535 26.6717C16.0465 25.6831 15.157 24.6107 14.3198 23.488C12.8895 23.3539 11.4767 23.1528 10.1337 22.8847C9.24419 26.4707 9.57558 28.9339 10.6744 29.5204ZM11.9128 19.902L11.407 19.0474C11.2151 19.5334 11.0233 20.0193 10.9012 20.4885C11.3721 20.589 11.8953 20.6728 12.436 20.7566C12.2616 20.4718 12.0872 20.1869 11.9128 19.902ZM23.3198 18.6285L24.7326 16.115L23.3198 13.6015C22.7965 12.7134 22.2384 11.9258 21.7326 11.1383C20.7907 11.088 19.7965 11.088 18.75 11.088C17.7035 11.088 16.7093 11.088 15.7674 11.1383C15.2616 11.9258 14.7035 12.7134 14.1802 13.6015L12.7674 16.115L14.1802 18.6285C14.7035 19.5166 15.2616 20.3042 15.7674 21.0917C16.7093 21.142 17.7035 21.142 18.75 21.142C19.7965 21.142 20.7907 21.142 21.7326 21.0917C22.2384 20.3042 22.7965 19.5166 23.3198 18.6285ZM18.75 7.36799C18.4186 7.73664 18.0698 8.12204 17.7209 8.57447C18.0698 8.57447 18.4012 8.57447 18.75 8.57447C19.0988 8.57447 19.4302 8.57447 19.7791 8.57447C19.4302 8.12204 19.0814 7.73664 18.75 7.36799ZM18.75 24.862C19.0814 24.4934 19.4302 24.108 19.7791 23.6555C19.4302 23.6555 19.0988 23.6555 18.75 23.6555C18.4012 23.6555 18.0698 23.6555 17.7209 23.6555C18.0698 24.108 18.4186 24.4934 18.75 24.862ZM26.8081 2.70962C25.7267 2.07286 23.3198 3.04475 20.5465 5.55826C21.4535 6.54691 22.343 7.61934 23.1802 8.74204C24.6105 8.87609 26.0233 9.07718 27.3663 9.34528C28.2558 5.75934 27.9244 3.2961 26.8081 2.70962ZM25.5872 12.328L26.093 13.1826C26.2849 12.6966 26.4767 12.2107 26.5988 11.7415C26.1279 11.641 25.6047 11.5572 25.064 11.4734C25.2384 11.7583 25.4128 12.0431 25.5872 12.328ZM28.1163 0.514487C30.6802 1.92205 30.9593 5.62529 29.8779 9.94852C34.3081 11.2053 37.5 13.2831 37.5 16.115C37.5 18.9469 34.3081 21.0247 29.8779 22.2815C30.9593 26.6047 30.6802 30.3079 28.1163 31.7155C25.5698 33.1231 22.0988 31.5144 18.75 28.448C15.4012 31.5144 11.9302 33.1231 9.36628 31.7155C6.81977 30.3079 6.5407 26.6047 7.62209 22.2815C3.19186 21.0247 0 18.9469 0 16.115C0 13.2831 3.19186 11.2053 7.62209 9.94852C6.5407 5.62529 6.81977 1.92205 9.36628 0.514487C11.9302 -0.893078 15.4012 0.715567 18.75 3.78205C22.0988 0.715567 25.5698 -0.893078 28.1163 0.514487ZM27.6105 16.115C28.2035 17.3718 28.7267 18.6285 29.1628 19.902C32.8256 18.8463 34.8837 17.3382 34.8837 16.115C34.8837 14.8918 32.8256 13.3837 29.1628 12.328C28.7267 13.6015 28.2035 14.8582 27.6105 16.115ZM9.88953 16.115C9.29651 14.8582 8.77326 13.6015 8.33721 12.328C4.67442 13.3837 2.61628 14.8918 2.61628 16.115C2.61628 17.3382 4.67442 18.8463 8.33721 19.902C8.77326 18.6285 9.29651 17.3718 9.88953 16.115ZM25.5872 19.902C25.4128 20.1869 25.2384 20.4718 25.064 20.7566C25.6047 20.6728 26.1279 20.589 26.5988 20.4885C26.4767 20.0193 26.2849 19.5334 26.093 19.0474L25.5872 19.902ZM20.5465 26.6717C23.3198 29.1852 25.7267 30.1571 26.8081 29.5204C27.9244 28.9339 28.2558 26.4707 27.3663 22.8847C26.0233 23.1528 24.6105 23.3539 23.1802 23.488C22.343 24.6107 21.4535 25.6831 20.5465 26.6717ZM11.9128 12.328C12.0872 12.0431 12.2616 11.7583 12.436 11.4734C11.8953 11.5572 11.3721 11.641 10.9012 11.7415C11.0233 12.2107 11.2151 12.6966 11.407 13.1826L11.9128 12.328ZM16.9535 5.55826C14.1802 3.04475 11.7733 2.07286 10.6744 2.70962C9.57558 3.2961 9.24419 5.75934 10.1337 9.34528C11.4767 9.07718 12.8895 8.87609 14.3198 8.74204C15.157 7.61934 16.0465 6.54691 16.9535 5.55826Z" fill="white"/>
</svg>
