<svg width="39" height="21" viewBox="0 0 39 21" fill="none" xmlns="http://www.w3.org/2000/svg">
<path d="M19.5 0C14.2935 0 11.0565 2.3275 9.75 7C11.7 4.6725 13.9815 3.7975 16.575 4.375C18.057 4.7075 19.1295 5.67 20.2995 6.7375C22.2105 8.4875 24.375 10.5 29.25 10.5C34.4565 10.5 37.6935 8.1725 39 3.5C37.05 5.8275 34.7685 6.7025 32.175 6.125C30.693 5.7925 29.64 4.83 28.4505 3.7625C26.5395 2.0125 24.375 0 19.5 0ZM9.75 10.5C4.5435 10.5 1.3065 12.8275 0 17.5C1.95 15.1725 4.2315 14.2975 6.825 14.875C8.307 15.2075 9.36 16.17 10.5495 17.2375C12.4605 18.9875 14.625 21 19.5 21C24.7065 21 27.9435 18.6725 29.25 14C27.3 16.3275 25.0185 17.2025 22.425 16.625C20.943 16.2925 19.89 15.33 18.7005 14.2625C16.7895 12.5125 14.625 10.5 9.75 10.5Z" fill="white"/>
</svg>
