<svg width="33" height="33" viewBox="0 0 33 33" fill="none" xmlns="http://www.w3.org/2000/svg">
<path d="M26.5833 16.5C25.854 16.5 25.1545 16.2103 24.6388 15.6945C24.1231 15.1788 23.8333 14.4793 23.8333 13.75C23.8333 13.0207 24.1231 12.3212 24.6388 11.8055C25.1545 11.2897 25.854 11 26.5833 11C27.3127 11 28.0122 11.2897 28.5279 11.8055C29.0436 12.3212 29.3333 13.0207 29.3333 13.75C29.3333 14.4793 29.0436 15.1788 28.5279 15.6945C28.0122 16.2103 27.3127 16.5 26.5833 16.5ZM21.0833 9.16667C20.354 9.16667 19.6545 8.87694 19.1388 8.36121C18.6231 7.84549 18.3333 7.14601 18.3333 6.41667C18.3333 5.68732 18.6231 4.98785 19.1388 4.47212C19.6545 3.9564 20.354 3.66667 21.0833 3.66667C21.8127 3.66667 22.5122 3.9564 23.0279 4.47212C23.5436 4.98785 23.8333 5.68732 23.8333 6.41667C23.8333 7.14601 23.5436 7.84549 23.0279 8.36121C22.5122 8.87694 21.8127 9.16667 21.0833 9.16667ZM11.9167 9.16667C11.1873 9.16667 10.4878 8.87694 9.97212 8.36121C9.4564 7.84549 9.16667 7.14601 9.16667 6.41667C9.16667 5.68732 9.4564 4.98785 9.97212 4.47212C10.4878 3.9564 11.1873 3.66667 11.9167 3.66667C12.646 3.66667 13.3455 3.9564 13.8612 4.47212C14.3769 4.98785 14.6667 5.68732 14.6667 6.41667C14.6667 7.14601 14.3769 7.84549 13.8612 8.36121C13.3455 8.87694 12.646 9.16667 11.9167 9.16667ZM6.41667 16.5C5.68732 16.5 4.98785 16.2103 4.47212 15.6945C3.9564 15.1788 3.66667 14.4793 3.66667 13.75C3.66667 13.0207 3.9564 12.3212 4.47212 11.8055C4.98785 11.2897 5.68732 11 6.41667 11C7.14601 11 7.84549 11.2897 8.36121 11.8055C8.87694 12.3212 9.16667 13.0207 9.16667 13.75C9.16667 14.4793 8.87694 15.1788 8.36121 15.6945C7.84549 16.2103 7.14601 16.5 6.41667 16.5ZM16.5 0C12.1239 0 7.92709 1.73839 4.83274 4.83274C1.73839 7.92709 0 12.1239 0 16.5C0 20.8761 1.73839 25.0729 4.83274 28.1673C7.92709 31.2616 12.1239 33 16.5 33C17.2293 33 17.9288 32.7103 18.4445 32.1945C18.9603 31.6788 19.25 30.9793 19.25 30.25C19.25 29.535 18.975 28.8933 18.535 28.4167C18.1133 27.9217 17.8383 27.28 17.8383 26.5833C17.8383 25.854 18.1281 25.1545 18.6438 24.6388C19.1595 24.1231 19.859 23.8333 20.5883 23.8333H23.8333C26.2645 23.8333 28.5961 22.8676 30.3151 21.1485C32.0342 19.4294 33 17.0978 33 14.6667C33 6.56333 25.6117 0 16.5 0Z" fill="black"/>
</svg>
